:FULLY-SPECIFIED
:FORCE-ALL-JOINTS-BE-3DOF
:DEGREES
275
root 9.97355 16.8782 1.74159 5.75055 -4.13409 2.004
lfemur -17.3822 6.43362 -28.553
ltibia 29.6 0 0
lfoot -17.5033 6.66528 0
ltoes -0.997956 0 0
rfemur -25.6886 -1.76705 17.6684
rtibia 64.1274 0 0
rfoot -17.4879 -11.5797 0
rtoes -17.2608 0 0
lowerback -5.08344 -1.45499 -2.89634
upperback -0.404591 -1.83076 2.0813
thorax 2.59283 -0.957509 3.6423
lowerneck -22.1245 -3.72725 -11.2765
upperneck 21.7267 -4.3628 11.3149
head 11.2217 -1.531 5.37643
lclavicle 1.07767e-14 -2.73881e-14 0
lhumerus -21.6084 -14.1365 87.316
lradius 24.0007 0 0
lwrist 0.346087 0 0
lhand -12.6021 -24.2356 0
lfingers 7.12502 0 0
lthumb 13.4768 5.30967 0
rclavicle 1.07767e-14 -2.73881e-14 0
rhumerus -45.5263 8.22035 -83.0612
rradius 42.4957 0 0
rwrist -23.4621 0 0
rhand -29.3566 -22.4479 0
rfingers 7.12502 0 0
rthumb -2.6961 -52.411 0
276
root 9.98365 16.8686 1.86508 5.67847 -3.73831 2.04643
lfemur -16.7829 6.23763 -28.5923
ltibia 29.5336 0 0
lfoot -17.7587 6.50129 0
ltoes -1.03308 0 0
rfemur -26.7108 -1.82214 17.754
rtibia 63.3616 0 0
rfoot -18.1243 -11.75 0
rtoes -17.8929 0 0
lowerback -5.06598 -1.64173 -2.96685
upperback -0.370767 -2.07727 2.11674
thorax 2.64302 -1.08304 3.69947
lowerneck -22.1264 -3.69795 -11.1942
upperneck 21.8513 -4.32694 11.1931
head 11.2581 -1.52321 5.32636
lclavicle 1.17391e-14 -2.2054e-14 0
lhumerus -20.7067 -14.088 87.0738
lradius 24.0172 0 0
lwrist 0.189761 0 0
lhand -12.6302 -24.2293 0
lfingers 7.12502 0 0
lthumb 13.4498 5.31744 0
rclavicle 1.17391e-14 -2.2054e-14 0
rhumerus -45.5892 8.32219 -83.0765
rradius 42.5375 0 0
rwrist -23.6553 0 0
rhand -29.4517 -22.5913 0
rfingers 7.12502 0 0
rthumb -2.78791 -52.5529 0
277
root 9.99374 16.859 1.98856 5.63214 -3.32586 2.09763
lfemur -16.1414 6.0291 -28.6385
ltibia 29.3452 0 0
lfoot -17.9866 6.35771 0
ltoes -1.08821 0 0
rfemur -27.7079 -1.84321 17.7999
rtibia 62.4978 0 0
rfoot -18.777 -11.8669 0
rtoes -18.2057 0 0
lowerback -5.05864 -1.83017 -3.04716
upperback -0.344233 -2.32516 2.14928
thorax 2.69295 -1.20926 3.7585
lowerneck -22.1094 -3.66855 -11.1574
upperneck 21.9487 -4.29038 11.128
head 11.2832 -1.51244 5.30481
lclavicle 1.25731e-14 -1.66979e-14 0
lhumerus -19.8435 -14.1118 86.8702
lradius 24.0579 0 0
lwrist 0.106751 0 0
lhand -12.7714 -24.2512 0
lfingers 7.12502 0 0
lthumb 13.3136 5.30356 0
rclavicle 1.25731e-14 -1.66979e-14 0
rhumerus -45.6624 8.38572 -83.0708
rradius 42.5509 0 0
rwrist -23.7724 0 0
rhand -29.485 -22.7689 0
rfingers 7.12502 0 0
rthumb -2.82009 -52.73 0
278
root 9.99972 16.8596 2.11115 5.62945 -2.86794 2.15469
lfemur -15.4932 5.78352 -28.6909
ltibia 29.0601 0 0
lfoot -18.1823 6.23385 0
ltoes -1.14529 0 0
rfemur -28.7062 -1.84398 17.8116
rtibia 61.5242 0 0
rfoot -19.4745 -11.9229 0
rtoes -18.0277 0 0
lowerback -5.06378 -2.03044 -3.139
upperback -0.332131 -2.58795 2.18286
thorax 2.73834 -1.34276 3.82335
lowerneck -22.0603 -3.63654 -11.1812
upperneck 22.0024 -4.2495 11.1386
head 11.2886 -1.49631 5.32158
lclavicle 1.34296e-14 -1.00368e-14 0
lhumerus -19.0135 -14.1745 86.7052
lradius 24.1149 0 0
lwrist 0.0649347 0 0
lhand -13.0688 -24.3154 0
lfingers 7.12502 0 0
lthumb 13.0269 5.25629 0
rclavicle 1.34296e-14 -1.00368e-14 0
rhumerus -45.7461 8.40991 -83.0386
rradius 42.5327 0 0
rwrist -23.7893 0 0
rhand -29.434 -23.0576 0
rfingers 7.12502 0 0
rthumb -2.7708 -53.0194 0
